# xmcd CD database file
#
# Track frame offsets:
#	150
#	23216
#	48707
#	74641
#	122341
#	146084
#	166490
#	195238
#	218892
#	234005
#	245492
#	267565
#	278958
#	290271
#
# Disc length: 4073 seconds
#
# Revision: 1
# Processed by: cddbd v1.5.1PL2 Copyright (c) Steve Scherf et al.
# Submitted via: CDex 1.51
#
DISCID=d50fe70e
DTITLE=Thelonious Monk - Well You Needn't
DYEAR=1954
DGENRE=Jazz
TTITLE0=Let's Call This
TTITLE1=Think Of One
TTITLE2=Think Of One (Take 2)
TTITLE3=Friday The 13th
TTITLE4=Wee See
TTITLE5=Smoke Gets In Your Eyes
TTITLE6=Locomotive
TTITLE7=Hackensack
TTITLE8=Smoke Gets In Your Eyes (Take 2)
TTITLE9=Manganese (Wee See)
TTITLE10=Portrait Of An Ermite (Reflections)
TTITLE11=Off Minor
TTITLE12=Eronel
TTITLE13=Well You Needn't
EXTD=YEAR: 1954
EXTT0=
EXTT1=
EXTT2=
EXTT3=
EXTT4=
EXTT5=
EXTT6=
EXTT7=
EXTT8=
EXTT9=
EXTT10=
EXTT11=
EXTT12=
EXTT13=
PLAYORDER=
